Patient4_TMGait_0pt4_01_right_13_EMG.mot
version=1
nRows=40
nColumns=33
inDegrees=no
endheader
time	1LAddLong	2LGlutMax	3LGlutMed	4LIliopsoas	5LSemiMemb	6LBicFemLong	7LRecFem	8LVastMed	9LVastLat	10LGasMed	11LTibAnt	12lTibPost	13LPeroneusLong	14LSol	15LExtDigLong	16LFlexDigLong	17RAddLong	18RGlutMax	19RGlutMed	20RIliopsoas	21RSemiMemb	22RBicFemLong	23RRecFem	24RVastMed	25RVastLat	26RGasMed	27RTibAnt	28RTibPost	29RPeroneusLong	30RSol	31RExtDigLong	32RFlexDigLong
16.73	0.007782	0.068207	-0.028076	0.005188	0.016632	-0.01236	-0.045166	0.00061	-0.075073	0.05249	-0.24307	0.023651	-0.10849	-0.1973	-0.64072	-0.10864	0.047302	-0.024872	0.47546	0.03952	-0.017548	-0.10178	0.054932	-0.072327	0.010071	-0.003662	0.056152	-0.001984	0.27741	0.015717	0.000458	0.003357
16.731	0.001068	0.094757	-0.053101	0.009613	0.014191	0.006409	0.050201	0.000458	-0.027161	0.025177	-0.17105	0.06485	-0.11581	-0.21332	-0.177	-0.11185	0.019531	-0.02182	-0.2066	-0.003662	-0.015717	-0.064087	0.1091	-0.069122	0.000763	-0.004272	-0.057678	-0.002136	0.053101	0.077362	-0.002441	0.005188
16.732	0.001526	0.078888	0.06134	0.012054	-0.000305	0.00351	0.055695	0.00412	-0.016479	0.059814	-0.17319	0.069885	-0.14816	-0.23666	0.62241	-0.10468	0.011597	-0.021515	-0.19363	-0.10193	-0.013275	-0.068665	0.078735	-0.065613	0.033569	-0.00946	0.053101	-0.001984	-0.16708	0.072479	-0.003052	0.003357
16.733	0.003052	0.075531	0.098724	0.006256	0.004425	-0.00885	0.060425	0.010376	-0.001221	0.09491	0.02594	0.018311	-0.040894	-0.17807	-0.002899	-0.089111	-0.014191	-0.093384	-0.2179	-0.121	-0.008392	-0.075073	0.039368	-0.054626	0.028381	-0.004578	-0.34149	-0.00351	-0.35751	0.0383	-0.00061	0.002747
16.734	0.007935	0.063629	0.035553	-0.002441	0.010986	0.034485	0.057983	0.009003	0.011444	0.046692	0.10468	-0.076599	0.019836	-0.16739	-0.13825	-0.091553	-0.015717	-0.045624	-0.31815	-0.016327	-0.007629	-0.086212	0.055084	-0.10773	0.018768	-0.001831	-0.69	-0.006561	0.019989	0.052185	0.000916	0.003967
16.735	0.007935	0.072327	-0.067902	-0.009308	0.010223	0.095215	0.027618	0.007935	0.003662	0.032959	0.049591	0.027771	0.055695	-0.23804	-0.11917	-0.075226	-0.019226	-0.026855	-0.43961	0.053253	-0.02182	-0.068359	-0.059967	-0.14465	0.029449	-0.006866	-0.31311	-0.006256	0.12192	-0.016022	0.002136	-0.00351
16.736	0.010071	0.052185	-0.090179	0.000763	0.001831	0.09201	0.004883	0.006561	0.007629	0.039673	-0.053406	0.035248	-0.014496	-0.057068	0.041962	-0.057068	-0.002441	-0.062714	-0.29404	-0.023193	-0.014801	-0.085907	-0.11932	-0.12741	0.036774	-0.003967	-0.10468	-0.003662	-0.052185	-0.053101	0.001678	-0.004272
16.737	0.006409	0.040131	-0.047913	0.002594	0.008392	0.061188	0.049591	0.006256	-0.035553	-0.008087	0.028229	0.048218	-0.087891	0.021973	0.14572	-0.050354	0.066528	-0.039063	-0.12375	-0.064545	-0.012817	-0.10666	-0.11185	-0.12344	0.012512	-0.010223	0.22476	-0.007477	-0.027924	-0.021515	0.001373	-0.004883
16.738	-0.000305	0.037231	0.031891	0.018158	0.008545	0.021362	0.05188	0.014038	-0.046844	-0.028076	0.23758	0.072327	-0.0737	0.051422	-0.017395	-0.021515	0.090942	-0.067902	0.22644	-0.097961	-0.021667	-0.11643	-0.067444	-0.070038	0.008392	-0.014648	0.3624	-0.006409	0.23071	-0.03006	-0.005493	-0.010376
16.739	0.002899	0.006866	0.091095	0.018616	0.001526	-0.019531	0.001984	0.014191	0.047913	0.056	0.22751	0.07782	-0.082397	-0.035553	-0.20126	-0.030212	0.063934	-0.086365	0.99243	0.010223	-0.008698	-0.14481	-0.059814	-0.1152	0.011444	-0.008087	0.21362	-0.003357	0.13092	-0.013733	-0.002899	-0.014954
16.74	0.003662	0.010071	0.099487	-0.003357	0.001984	-0.049744	-0.068207	0.00885	0.089417	0.065002	-0.088043	0.067749	-0.036926	-0.074921	0.24872	-0.004578	0.03952	-0.11017	0.33417	0.24384	-0.021667	-0.17563	-0.056915	-0.15045	0.036621	-0.001526	0.27252	-0.002441	-0.20599	-0.06134	-0.002136	-0.006714
16.741	0.003662	0.041656	0.050201	0.003204	0.007477	-0.19821	-0.10269	0.005493	0.099182	0.05722	-0.43701	0.061646	0.090485	0.004883	1.0408	0.007935	0.003662	-0.097961	0.25345	0.22568	-0.014038	-0.17853	-0.048676	-0.11169	0.038147	0.00412	-0.050507	-0.00351	-0.79376	-0.13672	-0.004578	0.000763
16.742	0.005493	-0.018463	-0.029144	0.009766	0.005188	-0.22797	-0.028381	0.009766	0.13367	0.042725	-0.26749	0.057373	0.14511	0.092163	0.30838	0.009308	-0.00351	-0.12421	0.13992	-0.001373	-0.019836	-0.19608	0.044556	-0.073853	0.049591	-0.001984	-0.17639	-0.003662	0.26718	-0.03952	0.003357	0.003357
16.743	-0.002136	-0.015106	-0.098724	0.012207	-0.00946	-0.035553	0.046387	0.015106	0.27023	0.04425	0.032196	0.052795	0.091858	0.16113	0.39887	0.007782	0.074005	-0.10437	-0.11475	-0.20737	-0.068207	-0.22842	0.12802	-0.054626	0.036011	-0.008087	-0.20706	-0.005951	0.354	0.025177	0.001678	0.00412
16.744	0.002747	-0.027008	0.010376	-0.009766	-0.032806	-0.001221	0.015411	0.016632	0.40588	0.054169	0.31723	0.049744	-0.006409	0.25528	0.28732	0.006561	0.12405	-0.061035	-0.27176	-0.10178	-0.10422	-0.23209	0.13031	-0.03006	0.037231	0.005646	-0.17227	-0.01236	-0.027771	-0.060272	0.005493	0.006104
16.745	0.000916	-0.004883	0.039673	0.000153	-0.062408	0.014343	-0.007782	0.006561	0.4248	0.038605	0.21683	0.057068	-0.014496	0.26993	0.047455	-0.000916	0.097504	-0.09201	-0.090637	0.020294	-0.10742	-0.20294	0.065308	-0.032501	0.058746	0.004883	-0.17517	-0.00473	-0.23666	-0.11932	0.000153	0.005798
16.746	0.01236	-0.017853	0.087738	0.006409	-0.053711	-0.05722	0.068817	-0.032043	0.3064	0.032654	0.25848	0.062256	0.095215	0.20447	-0.13001	0.004272	0.032196	-0.083313	-0.13992	0.09491	-0.054932	-0.1709	-0.047607	-0.006714	0.050964	0.001984	-0.19012	-0.005646	0.063782	-0.059967	-0.004272	0.00351
16.747	0.02594	-0.005798	0.028534	-0.002594	0.02533	-0.008392	0.11688	0.028229	-0.3389	-0.025787	-0.2713	0.058136	0.17685	0.19073	0.31158	0.005493	-0.06073	-0.089569	-0.1088	0.13321	0.076141	-0.16327	-0.0914	-0.059204	0.051575	-0.002289	0.084839	0.005035	-0.13886	-0.049896	0	-0.001984
16.748	0.023499	-0.007629	-0.01709	-0.003204	0.0914	0.062866	0.047302	-0.025482	-0.62302	-0.015259	0.065002	0.029755	0.11337	0.12009	-1.2799	0.023956	-0.09613	-0.063019	-0.072937	0.14725	0.10071	-0.21942	-0.042572	-0.068665	0.04715	-0.007629	0.27725	-0.00412	-0.46951	-0.038147	0.000916	0.000153
16.749	0.013733	-0.0177	0.014496	0.01297	0.069885	0.080109	0.011444	0.001221	-0.45151	0.074921	-0.11444	0.038605	-0.014801	-0.022583	-0.82138	0.018158	-0.11398	-0.05661	0.10376	0.084229	0.04303	-0.29877	-0.086823	-0.12085	0.039368	-0.009155	0.37567	-0.006866	-0.27817	-0.067902	-0.00061	-0.006561
16.75	0.007782	-0.019073	0.031738	0.027466	0.033569	0.098724	0.049133	-0.009155	-0.21774	0.091858	0.078278	0.060577	-0.061798	-0.027924	-0.87158	-0.011139	-0.10422	-0.035706	0.40756	0.007935	-0.009155	-0.38498	-0.056763	-0.10269	0.027771	-0.009613	0.58914	-0.002136	-0.19913	-0.005035	-0.000763	0.000305
16.751	0.005951	-0.023041	-0.026703	0.001831	0.027466	0.10208	0.083618	-0.000305	-0.11704	0.069275	0.15503	0.052032	-0.069122	0.029144	-0.36346	-0.018463	-0.086212	-0.09613	0.34653	-0.010834	-0.007019	-0.49972	-0.074158	-0.11246	0.022583	-0.001068	0.60928	-0.003662	-0.071411	-0.00351	0.000153	-0.001221
16.752	0.004425	-0.010223	-0.052948	-0.003662	0.013428	0.092468	0.1326	0.00824	-0.11368	0.045776	-0.048523	0.059204	-0.065308	0.041809	-0.022125	-0.017242	-0.054626	-0.13077	0.026703	-0.023804	0.002289	-0.6485	-0.015411	-0.13779	0.035095	-0.009155	0.62912	-0.004272	-0.1387	-0.050812	0.001984	0.004578
16.753	0.004272	-0.016632	-0.002136	0.001373	0.0177	-0.043945	0.080719	0	-0.12085	0.028839	-0.22522	0.057373	-0.022736	-0.06546	-0.059509	-0.010681	-0.03952	-0.10605	-0.080109	0.000916	0.026703	-0.63309	-0.008392	-0.045471	0.021362	-0.010834	0.20813	-0.006256	-0.010071	-0.032349	-0.00061	-0.005341
16.754	0.006561	-0.009308	0.010529	0.015411	0.014343	-0.21759	0.094604	0.00946	-0.1239	0.041809	-0.088654	0.061188	-0.058441	-0.1207	0.15457	-0.015106	-0.022736	-0.12756	0.14389	-0.026245	0.032959	-0.49164	0.03479	-0.081482	0.034943	-0.007477	-0.099792	-0.009003	-0.21072	0.010986	0.008545	-0.00885
16.755	0.006714	0.028992	-0.020447	0.010681	0.023041	-0.12039	0.006561	0.014191	-0.089417	0.058746	0.004578	0.058441	-0.079346	-0.18753	0.23605	0.005035	0.018463	-0.12619	0.22461	-0.007324	-0.030518	-0.4039	0.059357	-0.058289	0.026093	-0.001831	-0.01236	-0.012512	-0.13931	-0.056915	-0.001678	-0.011444
16.756	0.015869	0.029907	0.023041	-0.007629	0.016174	-0.041962	-0.068665	-0.003052	0.001678	0.058899	-0.016479	0.059052	-0.078278	-0.16144	0.13382	0.023346	0.047455	-0.10666	0.12421	-0.022736	-0.08728	-0.35065	0.043182	-0.022125	0.027466	0.002136	-0.15442	-0.012817	0.071411	-0.083618	-0.00061	-0.015259
16.757	0.017242	0.039825	0.014801	-0.015564	0.010681	-0.016022	-0.024872	-0.012817	0.01297	0.036926	-0.20935	0.059814	-0.015717	-0.085602	0.058289	0.031128	0.068817	-0.076447	0.06546	-0.022888	-0.059052	-0.26901	0.036163	-0.096283	0.035706	0.00824	-0.1918	-0.005951	0.12695	-0.06012	0.000153	-0.011902
16.758	0.001221	0.061493	-0.009766	-0.004272	0.008087	-0.007019	0.057068	-0.016022	0.023956	0.041962	-0.1619	0.062561	-0.061951	-0.022888	0.16632	0.023041	0.063934	-0.04776	-0.016174	-0.021362	0.039825	-0.17136	0.031433	-0.14053	0.015869	0.00412	-0.3685	-0.007172	0.30502	0.077515	-0.000305	-0.007782
16.759	-0.001526	0.09201	0.011597	0.009308	0.009308	0.005951	0.074768	-0.006714	0.025177	0.048523	-0.047607	0.063324	-0.10346	-0.008087	0.27679	0.028839	0.018921	-0.001984	0.003052	0.009766	0.2092	-0.055084	0.005798	-0.11643	-0.00061	-0.002441	-0.23651	-0.012054	0.26886	0.17105	0.000916	-0.012817
16.76	-0.001984	0.088501	-0.014801	0.002747	0.003662	0.005188	0.1561	-0.002594	-0.020599	0.062866	-0.032959	0.05249	-0.064545	0.036011	0.29709	0.032654	-0.066071	0.005188	-0.10574	0.000916	0.012512	0.073242	-0.028076	-0.049744	0.013428	0.000763	-0.10346	-0.015717	-0.088348	0.032043	0.004272	-0.010071
16.761	-0.009003	0.072327	-0.08255	0.014038	0.013428	-0.001831	0.15396	-0.005951	-0.005951	0.036316	0.014648	0.050964	-0.031891	0.095367	0.078125	0.028839	-0.091095	-0.061646	-0.19058	-0.012207	-0.015869	0.068054	-0.06134	-0.021667	0.020447	0.000458	-0.15106	-0.001831	-0.4129	-0.018616	0.002747	-0.001373
16.762	0.016174	0.037994	-0.090332	0.0177	-0.000763	-0.006866	0.088959	-0.004425	0.021667	0.029297	0.050049	0.049286	0.000153	0.000305	-0.032349	0.032959	-0.083313	-0.064545	-0.22079	-0.009155	-0.027924	0.063934	-0.02533	-0.054779	0.007477	-0.004272	-0.11032	-0.006866	-0.28214	-0.010986	0.000916	-0.00473
16.763	-0.001984	0.078888	-0.083771	0.00061	0.003052	-0.057678	-0.065613	0.009155	-0.0354	0.028992	0.055695	0.048828	-0.005493	0.049133	0.2565	0.017853	-0.049438	-0.045319	-0.10422	0.001373	-0.068054	0.035553	-0.029297	-0.093384	-0.021667	-0.007935	0.18005	-0.00885	-0.11963	-0.013123	-0.001221	0.007324
16.764	0.008392	0.11688	0.054169	0.003662	0.011444	-0.05722	-0.19287	0.022888	-0.030823	0.016632	0.081329	0.04715	-0.048828	0.071564	0.64255	0.011597	-0.046082	0.006561	0.18707	-0.043945	-0.017853	0.044861	0.006409	-0.12695	-0.021973	-0.009613	0.44373	-0.007019	-0.12894	-0.059662	-0.001373	0.009308
16.765	0.008087	0.13367	0.074158	-0.012817	0.000153	-0.013275	-0.18402	0.021667	-0.007629	-0.002289	0.18417	0.043945	0.02121	0.13672	0.30365	0.008392	-0.024414	-0.016937	0.30685	-0.032959	-0.018768	0.067291	0.004578	-0.097198	-0.008087	-0.014343	0.65948	-0.012665	-0.17654	-0.084839	-0.000458	0.002441
16.766	0.000458	0.15503	-0.002441	-0.021057	0.002441	-0.023499	-0.092468	0.016479	-0.02243	-0.026398	0.05249	0.042267	0.054016	0.051727	0.018616	0.002136	-0.024719	0.01358	0.18387	-0.038452	-0.025024	0.10971	-0.02594	-0.097809	0.005188	-0.017395	0.78461	-0.009155	-0.029449	-0.030365	-0.001373	-0.001526
16.767	-0.000916	0.16785	0.006714	-0.012665	0	-0.022278	0.013428	0.015869	0	0.035095	-0.043945	0.041046	0.029449	0.03891	0.16312	-0.005188	-0.021973	0.010376	-0.003662	-0.043793	-0.025482	0.13931	0.012512	-0.090485	0.008087	-0.017395	0.11322	-0.009918	0.25711	-0.003357	-0.005493	-0.001373
16.768	0.026398	0.14542	-0.004272	0.007019	0.003815	-0.01297	0.014801	-0.002747	0.069275	-0.000153	0.13657	0.037994	0.006409	0.074768	-0.65491	-0.002136	-0.019226	-0.075836	-0.11017	-0.091553	-0.014343	0.1503	-0.011139	-0.092316	0.01236	-0.00885	-0.42267	-0.009003	0.12955	0.034943	0	-0.005951
16.769	0.015259	0.099945	-0.005035	0.020752	0.00061	-0.011902	-0.018768	-0.001831	0.13718	-0.03479	0.034332	0.036316	0.009308	0.015717	-0.49057	-0.010834	0.000458	-0.042419	0.068665	-0.083008	-0.020142	0.1709	-0.02243	-0.11032	0.001678	0.004578	-0.36835	-0.008698	-0.059814	-0.020294	-0.00061	-0.003357
